<svg width="50" height="50" viewBox="0 0 50 50" fill="none" xmlns="http://www.w3.org/2000/svg">
<g clip-path="url(#clip0_104_132)">
<path d="M42.6628 25.2866L42.6628 24.7799C42.6628 14.7061 34.4963 6.53966 24.4225 6.53966L23.9159 6.53966C13.5622 6.53966 5.16893 14.9329 5.16893 25.2866C5.16893 35.6402 13.5622 44.0335 23.9159 44.0335C34.2695 44.0335 42.6628 35.6402 42.6628 25.2866Z" stroke="black" stroke-width="2"/>
<path d="M9.96995 30V28.5597L13.3354 25.4435C13.6216 25.1665 13.8616 24.9173 14.0555 24.6957C14.2525 24.4741 14.4018 24.2571 14.5033 24.0447C14.6049 23.8293 14.6557 23.5969 14.6557 23.3477C14.6557 23.0707 14.5926 22.8321 14.4664 22.6321C14.3402 22.429 14.1679 22.2736 13.9494 22.1658C13.7308 22.055 13.4831 21.9996 13.2061 21.9996C12.9168 21.9996 12.6644 22.0581 12.449 22.1751C12.2336 22.292 12.0674 22.4598 11.9504 22.6783C11.8335 22.8968 11.775 23.1568 11.775 23.4585H9.87762C9.87762 22.8398 10.0177 22.3028 10.2977 21.8473C10.5778 21.3918 10.9702 21.0394 11.4749 20.7901C11.9797 20.5408 12.5613 20.4162 13.2199 20.4162C13.897 20.4162 14.4864 20.5362 14.9881 20.7763C15.4928 21.0133 15.8852 21.3426 16.1653 21.7642C16.4453 22.1858 16.5854 22.669 16.5854 23.2138C16.5854 23.5708 16.5146 23.9232 16.373 24.271C16.2345 24.6187 15.9868 25.005 15.6297 25.4297C15.2727 25.8513 14.7695 26.3576 14.1202 26.9485L12.7398 28.3011V28.3658H16.71V30H9.96995ZM17.8122 28.3381V26.7638L21.7593 20.5455H23.1165V22.7244H22.3133L19.825 26.6623V26.7362H25.434V28.3381H17.8122ZM22.3502 30V27.858L22.3871 27.1609V20.5455H24.2614V30H22.3502ZM30.9022 20.1023L27.8553 31.4219H26.1611L29.208 20.1023H30.9022ZM32.2052 30L36.1246 22.2443V22.1797H31.5589V20.5455H38.1928V22.2028L34.2688 30H32.2052Z" fill="black"/>
</g>
<defs>
<clipPath id="clip0_104_132">
<rect width="50" height="50" fill="white"/>
</clipPath>
</defs>
</svg>
