<svg width="50" height="50" viewBox="0 0 50 50" fill="none" xmlns="http://www.w3.org/2000/svg">
<path d="M31.0312 14L16 14V35.5H19.25V27.76H31.0312" stroke="black"/>
<path d="M29.4062 24.32H19.25V17.44H29.4062" stroke="black"/>
<path d="M31.0312 14H31.0445C31.8319 14 32.603 14.2242 33.2677 14.6463V14.6463C33.9298 15.0668 34.4591 15.6665 34.7941 16.3757L34.968 16.7438C35.3183 17.4854 35.5 18.2954 35.5 19.1156V22.6444C35.5 23.4646 35.3183 24.2746 34.968 25.0162L34.7941 25.3843C34.4591 26.0935 33.9298 26.6932 33.2677 27.1137V27.1137C32.603 27.5358 31.8319 27.76 31.0445 27.76H31.0312" stroke="black"/>
<path d="M29.4062 17.44H29.5257C29.9808 17.44 30.429 17.5513 30.8313 17.7642L30.9741 17.8398C31.5313 18.1347 31.9499 18.6372 32.1393 19.2385V19.2385C32.2127 19.4715 32.25 19.7143 32.25 19.9585V20.88V21.8825C32.25 22.0735 32.2278 22.2639 32.1839 22.4498L32.1613 22.5457C31.9658 23.3732 31.3304 24.0258 30.5084 24.2433V24.2433C30.3161 24.2942 30.118 24.32 29.9191 24.32H29.4062" stroke="black"/>
<path d="M44 25C44 35.4934 35.4934 44 25 44C14.5066 44 6 35.4934 6 25C6 14.5066 14.5066 6 25 6C35.4934 6 44 14.5066 44 25Z" stroke="black" stroke-width="2"/>
<path d="M42.1 25C42.1 34.4441 34.4441 42.1 25 42.1C15.5559 42.1 7.9 34.4441 7.9 25C7.9 15.5559 15.5559 7.9 25 7.9C34.4441 7.9 42.1 15.5559 42.1 25Z" stroke="black"/>
</svg>
