<svg width="50" height="50" viewBox="0 0 50 50" fill="none" xmlns="http://www.w3.org/2000/svg">
<path d="M9.5 43C9.5 43.8284 10.1716 44.5 11 44.5C11.8284 44.5 12.5 43.8284 12.5 43H9.5ZM9.5 15L9.5 43H12.5L12.5 15L9.5 15ZM28.5 16V15H25.5V16H28.5ZM28.5 15C28.5 9.75329 24.2467 5.5 19 5.5V8.5C22.5899 8.5 25.5 11.4101 25.5 15H28.5ZM12.5 15C12.5 11.4101 15.4101 8.5 19 8.5V5.5C13.7533 5.5 9.5 9.7533 9.5 15L12.5 15Z" fill="black"/>
<mask id="path-2-inside-1_104_113" fill="white">
<path d="M37 27C37 24.3478 35.9464 21.8043 34.0711 19.9289C32.1957 18.0536 29.6522 17 27 17C24.3478 17 21.8043 18.0536 19.9289 19.9289C18.0536 21.8043 17 24.3478 17 27L27 27H37Z"/>
</mask>
<path d="M37 27C37 24.3478 35.9464 21.8043 34.0711 19.9289C32.1957 18.0536 29.6522 17 27 17C24.3478 17 21.8043 18.0536 19.9289 19.9289C18.0536 21.8043 17 24.3478 17 27L27 27H37Z" stroke="black" stroke-width="4" mask="url(#path-2-inside-1_104_113)"/>
<path d="M15 28.5H39" stroke="black" stroke-width="2" stroke-linecap="round"/>
<path d="M21.2 32L20.469 33.8274C20.317 34.2076 20.4817 34.6408 20.8479 34.824C21.0696 34.9348 21.3304 34.9348 21.5521 34.824C21.9183 34.6409 22.083 34.2076 21.931 33.8274L21.2 32Z" stroke="black"/>
<path d="M17.2 32L16.469 33.8274C16.317 34.2076 16.4817 34.6408 16.8479 34.824C17.0696 34.9348 17.3304 34.9348 17.5521 34.824C17.9183 34.6409 18.083 34.2076 17.931 33.8274L17.2 32Z" stroke="black"/>
<path d="M19.2 36L18.469 37.8274C18.317 38.2076 18.4817 38.6408 18.8479 38.824C19.0696 38.9348 19.3304 38.9348 19.5521 38.824C19.9183 38.6409 20.083 38.2076 19.931 37.8274L19.2 36Z" stroke="black"/>
<path d="M23.2 36L22.469 37.8274C22.317 38.2076 22.4817 38.6408 22.8479 38.824C23.0696 38.9348 23.3304 38.9348 23.5521 38.824C23.9183 38.6409 24.083 38.2076 23.931 37.8274L23.2 36Z" stroke="black"/>
<path d="M29.2 32L28.469 33.8274C28.317 34.2076 28.4817 34.6408 28.8479 34.824C29.0696 34.9348 29.3304 34.9348 29.5521 34.824C29.9183 34.6409 30.083 34.2076 29.931 33.8274L29.2 32Z" stroke="black"/>
<path d="M33.2 32L32.469 33.8274C32.317 34.2076 32.4817 34.6408 32.8479 34.824C33.0696 34.9348 33.3304 34.9348 33.5521 34.824C33.9183 34.6409 34.083 34.2076 33.931 33.8274L33.2 32Z" stroke="black"/>
<path d="M37.2 32L36.469 33.8274C36.317 34.2076 36.4817 34.6408 36.8479 34.824C37.0696 34.9348 37.3304 34.9348 37.5521 34.824C37.9183 34.6409 38.083 34.2076 37.931 33.8274L37.2 32Z" stroke="black"/>
<path d="M27.2 36L26.469 37.8274C26.317 38.2076 26.4817 38.6408 26.8479 38.824C27.0696 38.9348 27.3304 38.9348 27.5521 38.824C27.9183 38.6409 28.083 38.2076 27.931 37.8274L27.2 36Z" stroke="black"/>
<path d="M31.2 36L30.469 37.8274C30.317 38.2076 30.4817 38.6408 30.8479 38.824C31.0696 38.9348 31.3304 38.9348 31.5521 38.824C31.9183 38.6409 32.083 38.2076 31.931 37.8274L31.2 36Z" stroke="black"/>
<path d="M35.2 36L34.469 37.8274C34.317 38.2076 34.4817 38.6408 34.8479 38.824C35.0696 38.9348 35.3304 38.9348 35.5521 38.824C35.9183 38.6409 36.083 38.2076 35.931 37.8274L35.2 36Z" stroke="black"/>
<path d="M25.2 32L24.469 33.8274C24.317 34.2076 24.4817 34.6408 24.8479 34.824C25.0696 34.9348 25.3304 34.9348 25.5521 34.824C25.9183 34.6409 26.083 34.2076 25.931 33.8274L25.2 32Z" stroke="black"/>
</svg>
