<svg width="50" height="50" viewBox="0 0 50 50" fill="none" xmlns="http://www.w3.org/2000/svg">
<path d="M19.5 43.9822V4.70711C19.5 4.31658 19.1834 4 18.7929 4C18.6054 4 18.4255 4.0745 18.2929 4.20711L16.8311 5.66886C16.6334 5.86661 16.5844 6.16872 16.7094 6.41886L16.75 6.5C16.8881 6.77614 16.7761 7.11193 16.5 7.25C16.2239 7.38807 16.1119 7.72386 16.25 8C16.3881 8.27614 16.2761 8.61193 16 8.75C15.7239 8.88807 15.6119 9.22386 15.75 9.5C15.8881 9.77614 15.7761 10.1119 15.5 10.25C15.2239 10.3881 15.1119 10.7239 15.25 11C15.3881 11.2761 15.2761 11.6119 15 11.75L14.7929 11.8536C14.6054 11.9473 14.4628 12.1117 14.3964 12.3107L14.1122 13.1633C14.0377 13.387 13.9901 13.6187 13.9705 13.8537L13.5 19.5L13.058 28.7829C13.021 29.5581 13.3128 30.3128 13.8616 30.8616C13.9537 30.9537 14.0523 31.0392 14.1566 31.1174L14.2489 31.1867C15.3512 32.0134 16 33.3109 16 34.6889V35.5V43.9822C16 44.8531 16.6404 45.5915 17.5025 45.7146C18.5568 45.8653 19.5 45.0472 19.5 43.9822Z" stroke="black" stroke-width="0.7"/>
<path d="M27.9026 26.8421L27.4977 43.2532C27.4673 44.485 28.4576 45.5 29.6898 45.5C30.9457 45.5 31.9451 44.4472 31.8796 43.193L31.0272 26.8568C30.9784 25.923 31.622 25.0948 32.5389 24.9115C33.1089 24.7975 33.5944 24.4267 33.8543 23.9067L34.1168 23.3819C34.3308 22.9537 34.4423 22.4816 34.4423 22.0028L34.4423 13.7308L33.9876 6.45595C33.9622 6.04833 33.6241 5.73078 33.2157 5.73078C32.7886 5.73078 32.4423 6.07705 32.4423 6.50419L32.4423 19.7308C32.4423 20.0069 32.2184 20.2308 31.9423 20.2308C31.6662 20.2308 31.4423 20.0069 31.4423 19.7308L31.4423 6.48078C31.4423 6.06656 31.1065 5.73078 30.6923 5.73078C30.2781 5.73078 29.9423 6.06656 29.9423 6.48078L29.9423 19.7308C29.9423 20.0069 29.7184 20.2308 29.4423 20.2308C29.1662 20.2308 28.9423 20.0069 28.9423 19.7308L28.9423 6.48078C28.9423 6.06656 28.6065 5.73078 28.1923 5.73078C27.7781 5.73078 27.4423 6.06657 27.4423 6.48078L27.4423 19.7308C27.4423 20.0069 27.2184 20.2308 26.9423 20.2308C26.6662 20.2308 26.4423 20.0069 26.4423 19.7308L26.4423 6.50419C26.4423 6.07704 26.096 5.73077 25.6689 5.73077C25.2605 5.73077 24.9225 6.04832 24.897 6.45594L24.4423 13.7308L24.4423 22.0028C24.4423 22.4816 24.5538 22.9537 24.7678 23.3819L25.0229 23.892C25.2875 24.4212 25.7816 24.7986 26.3618 24.9147C27.2755 25.0974 27.9255 25.9106 27.9026 26.8421Z" stroke="black" stroke-width="0.7"/>
</svg>
