<svg width="50" height="50" viewBox="0 0 50 50" fill="none" xmlns="http://www.w3.org/2000/svg">
<path d="M11.5 28L11.5 35M37.5 28V35M24.5 28.5L24.5 35M11.5 35L13.7729 36.1364C17.2642 37.8821 21.4519 37.4385 24.5 35V35M11.5 35L10.2548 35.6226C8.55132 36.4743 6.522 36.348 4.93727 35.2915L4.60852 35.0723C4.53635 35.0242 4.46911 34.9691 4.40778 34.9078V34.9078C4.14784 34.6478 4.00836 34.2911 4.02305 33.9238L4.48961 22.2598C4.4965 22.0874 4.52768 21.917 4.58221 21.7534V21.7534C4.83171 21.0049 5.53218 20.5 6.32117 20.5L23.5 20.5M37.5 35L38.7452 35.6226C40.4487 36.4743 42.478 36.348 44.0627 35.2915L44.3915 35.0723C44.4637 35.0242 44.5309 34.9691 44.5922 34.9078V34.9078C44.8522 34.6478 44.9916 34.2911 44.977 33.9238L44.5104 22.2598C44.5035 22.0874 44.4723 21.917 44.4178 21.7534V21.7534C44.1683 21.0049 43.4678 20.5 42.6788 20.5H23.5M37.5 35L35.2271 36.1364C31.7358 37.8821 27.5481 37.4385 24.5 35V35M23.5 20.5L21 20.5C20.7239 20.5 20.5 20.2761 20.5 20V20V19.3874C20.5 19.1308 20.5414 18.8759 20.6225 18.6325V18.6325C20.8601 17.9196 21.4196 17.3601 22.1325 17.1225V17.1225C22.3759 17.0414 22.6308 17 22.8874 17H23.5M23.5 20.5H26C26.2761 20.5 26.5 20.2761 26.5 20V20V19.3874C26.5 19.1308 26.4586 18.8759 26.3775 18.6325V18.6325C26.1399 17.9196 25.5804 17.3601 24.8675 17.1225V17.1225C24.6241 17.0414 24.3692 17 24.1126 17L23.5 17M23.5 14V17M23.5 14L18.5 14C17.9477 14 17.5 13.5523 17.5 13V13V11V11C17.5 10.4477 17.9477 10 18.5 10L28.5 10C29.0523 10 29.5 10.4477 29.5 11V11V13V13C29.5 13.5523 29.0523 14 28.5 14L23.5 14Z" stroke="black" stroke-width="2"/>
</svg>
