<svg width="50" height="50" viewBox="0 0 50 50" fill="none" xmlns="http://www.w3.org/2000/svg">
<path d="M44.5 36.5L44.5 26.5H45C46.6569 26.5 48 25.1569 48 23.5V23C48 21.067 46.433 19.5 44.5 19.5C42.0147 19.5 40 21.5147 40 24V31.5C40 32.6046 39.1046 33.5 38 33.5L12 33.5C10.8954 33.5 10 32.6046 10 31.5L10 24C10 21.5147 7.98528 19.5 5.5 19.5C3.567 19.5 2 21.067 2 23V23.5C2 25.1569 3.34315 26.5 5 26.5H5.5L5.5 36.5C5.5 38.433 7.067 40 9 40L41 40C42.933 40 44.5 38.433 44.5 36.5Z" stroke="black" stroke-width="2"/>
<line x1="10" y1="27.5" x2="40" y2="27.5" stroke="black" stroke-width="2"/>
<path d="M5.5 19.5V19.5C5.5 13.701 10.201 9 16 9H34C39.799 9 44.5 13.701 44.5 19.5V19.5" stroke="black" stroke-width="2"/>
</svg>
